<?xml version="1.0" encoding="UTF-8" standalone="no"?>
<svg width="58px" height="27px" viewBox="0 0 58 27" version="1.1" xmlns="http://www.w3.org/2000/svg" xmlns:xlink="http://www.w3.org/1999/xlink">
    <!-- Generator: sketchtool 41.1 (35376) - http://www.bohemiancoding.com/sketch -->
    <title>9B2A9767-4161-405B-B47E-B750D2A8BDF7</title>
    <desc>Created with sketchtool.</desc>
    <defs></defs>
    <g id="Landing-page" stroke="none" stroke-width="1" fill="none" fill-rule="evenodd">
        <g id="Mobile-web" transform="translate(-28.000000, -35.000000)" fill="#33b8e0">
            <g id="Group-5" transform="translate(28.000000, 35.150000)">
                <path d="M55.0329547,25.8033275 C53.8031023,25.8033275 52.7567784,25.046854 52.3069225,23.9754924 L52.2367808,12.5658362 L52.205138,12.5674265 C52.0289927,8.78293847 48.9295748,5.76711658 45.1213568,5.76711658 C41.1992246,5.76711658 38.0196447,8.96264731 38.0196447,12.9051095 C38.0196447,16.8475717 41.1992246,20.0436325 45.1213568,20.0436325 C46.2937247,20.0436325 47.3970057,19.7525996 48.3721331,19.2468703 L48.4776093,19.3587245 L50.8698093,21.0709946 L50.7179236,24.5109081 C49.0260855,25.3394772 47.1296235,25.8091587 45.1208294,25.8091587 C38.0312471,25.8091587 32.283322,20.03197 32.283322,12.9045794 C32.283322,5.77771888 38.0312471,0 45.1208294,0 C52.2109391,0 57.9588643,5.77771888 57.9588643,12.9045794 L57.9588643,22.3432696 C57.9836512,22.4985932 58,22.6570974 58,22.8203727 C58,24.4674387 56.6715273,25.8033275 55.0329547,25.8033275 L55.0329547,25.8033275 Z M30.3225195,23.1336704 L30.2755826,23.1336704 C30.2534326,24.7203034 28.9687326,26 27.3850076,26 C25.7875706,26 24.4928504,24.6985687 24.4928504,23.0928516 C24.4928504,22.9751662 24.5018158,22.8596012 24.5150004,22.7456266 L24.5150004,4.29604861 C24.5018158,4.17995351 24.4928504,4.0633283 24.4928504,3.94405252 C24.4928504,2.29645639 25.821323,0.96056763 27.460423,0.96056763 C29.0995231,0.96056763 30.4279957,2.29645639 30.4279957,3.94405252 C30.4279957,4.21335073 30.3889696,4.47310688 30.3225195,4.72120051 L30.3225195,23.1336704 L30.3225195,23.1336704 Z M22.2034896,5.8620071 L14.0791858,24.3142356 L14.036468,24.2951515 C13.3772417,25.7370632 11.6875131,26.3848632 10.2387976,25.740774 C9.5742976,25.44497 9.08594283,24.9228072 8.80062973,24.3084044 L8.78797258,24.3142356 L0.664196191,5.8620071 C0.503344997,5.6621539 0.36306166,5.44003588 0.254421181,5.1935326 C-0.408496692,3.68747706 0.268660467,1.92537618 1.76747717,1.25849203 C3.26629388,0.592137993 5.01878082,1.27280512 5.68222608,2.77939078 C5.71281417,2.8493659 5.72652608,2.9219916 5.75131298,2.99355707 L11.4338429,15.8991967 L17.1158454,2.99355707 C17.1406323,2.9219916 17.1543442,2.8493659 17.1849323,2.77939078 C17.8483776,1.27280512 19.6008645,0.592137993 21.0996812,1.25849203 C22.5984979,1.92537618 23.2756551,3.68747706 22.6127372,5.1935326 C22.5040967,5.44003588 22.3643408,5.66162378 22.2034896,5.8620071 L22.2034896,5.8620071 Z" id="via-logo"></path>
            </g>
        </g>
    </g>
</svg>
